HIERARCHY
ROOT Hips
{
  OFFSET -17.7726 93.5861 -452.985
  CHANNELS 6 Xposition Yposition Zposition Zrotation Xrotation Yrotation
  JOINT RightUpLeg
  {
    OFFSET -8.9458 -8.66707 0.101652
    CHANNELS 3 Zrotation Xrotation Yrotation
    JOINT RightLeg
    {
      OFFSET 0 -44.4227 1.3727
      CHANNELS 3 Zrotation Xrotation Yrotation
      JOINT RightFoot
      {
        OFFSET 0.253549 -42.0924 -1.46059
        CHANNELS 3 Zrotation Xrotation Yrotation
        JOINT RightToes
        {
          OFFSET 0.04 -4.41509 8.4991
          CHANNELS 3 Zrotation Xrotation Yrotation
          End Site
          {
            OFFSET -0.08 -0.137448 9.77979
          }
        }
      }
    }
  }
  JOINT Spine
  {
    OFFSET 0 11.8905 0
    CHANNELS 3 Zrotation Xrotation Yrotation
    JOINT Spine1
    {
      OFFSET 0 25.6574 0.127663
      CHANNELS 3 Zrotation Xrotation Yrotation
      JOINT HEad
      {
        OFFSET 0 8.73416 0.011341
        CHANNELS 3 Zrotation Xrotation Yrotation
        End Site
        {
          OFFSET -0.29 12.7742 2.51395
        }
      }
      JOINT LeftShoulder1
      {
        OFFSET 8.99 -0.362252 -0.22
        CHANNELS 3 Zrotation Xrotation Yrotation
        JOINT LeftArm
        {
          OFFSET 10.2827 -0.00338 0.322123
          CHANNELS 3 Zrotation Xrotation Yrotation
          JOINT LeftForeArm
          {
            OFFSET 32.7669 0.099144 -1.42434
            CHANNELS 3 Zrotation Xrotation Yrotation
            JOINT LeftHand
            {
              OFFSET 27.5643 0.085362 1.02216
              CHANNELS 3 Zrotation Xrotation Yrotation
              End Site
              {
                OFFSET 16.7443 -0.6 1.50291
              }
            }
          }
        }
      }
      JOINT RightShoulder
      {
        OFFSET -8.99 -0.362252 -0.22
        CHANNELS 3 Zrotation Xrotation Yrotation
        JOINT RightArm
        {
          OFFSET -10.2827 -0.00338 0.322123
          CHANNELS 3 Zrotation Xrotation Yrotation
          JOINT RightForeArm
          {
            OFFSET -32.8971 0.099144 -1.42434
            CHANNELS 3 Zrotation Xrotation Yrotation
            JOINT RightHand
            {
              OFFSET -27.4921 0.085362 1.02216
              CHANNELS 3 Zrotation Xrotation Yrotation
              End Site
              {
                OFFSET -16.6312 -0.6 1.50291
              }
            }
          }
        }
      }
    }
  }
  JOINT LeftUpLeg
  {
    OFFSET 8.9458 -8.66707 0.101652
    CHANNELS 3 Zrotation Xrotation Yrotation
    JOINT LeftLeg
    {
      OFFSET 0 -44.4227 1.3727
      CHANNELS 3 Zrotation Xrotation Yrotation
      JOINT LeftFoot
      {
        OFFSET -0.253549 -42.0924 -1.46059
        CHANNELS 3 Zrotation Xrotation Yrotation
        JOINT LeftToes
        {
          OFFSET -0.04 -4.41509 8.4991
          CHANNELS 3 Zrotation Xrotation Yrotation
          End Site
          {
            OFFSET 0.08 -0.047448 9.77979
          }
        }
      }
    }
  }
}
MOTION
Frames:	14
Frame Time:	0.0166667
-18.1033 99.4802 -449.747 -5.38851 4.10955 -109.942 -18.5403 8.46811 -0.957342 13.9393 15.163 2.37338 -0.429789 -2.46237 -0.182529 0.0462048 0.000533403 0.662642 5.42983 9.61093 4.66478 -0.0165298 0.0131896 0.00371173 -34.0945 25.7141 42.0433 -1.59028e-015 3.97569e-016 4.77083e-015 166.242 -70.1289 -167.783 -94.7286 56.2925 -42.8261 5.1009 16.8848 3.83141 17.8582 9.33891 7.58369 78.6635 -18.4147 79.1785 52.9046 52.842 64.3899 -5.69202 19.1073 0.314237 19.3031 -18.234 15.5034 5.06881 15.8392 -11.986 -5.96679 -4.28612 -0.447315 -1.18446e-009 1.5602e-007 -4.87131e-009 
-18.0334 98.8787 -450.001 -5.44598 4.12959 -109.704 -18.8065 9.38028 -1.05267 13.3164 15.4928 2.58361 0.0771997 -2.49455 -0.141889 0.0462048 0.000533403 0.662642 5.47741 9.64913 4.7511 -0.0165298 0.0131896 0.00371173 -33.9889 25.3305 41.4439 -5.51738e-033 1.98785e-016 1.59028e-015 166.621 -70.6056 -166.961 -96.3134 54.5417 -39.4578 5.21539 16.2021 4.24807 17.6949 9.67651 7.58692 78.6793 -18.6825 79.3765 53.241 52.8564 64.1825 -5.31093 18.985 -0.14588 19.6823 -18.2501 15.4215 4.91791 16.5758 -12.4558 -8.03885 -4.15303 -0.58324 -1.18446e-009 1.5602e-007 -4.87132e-009 
-18.0366 98.2703 -450.276 -5.49658 4.13645 -109.471 -19.0501 10.2088 -1.09968 12.166 16.3138 2.85634 1.05519 -2.44578 -0.0862683 0.0462048 0.000533403 0.662642 5.52316 9.68712 4.84646 -0.0165298 0.0131896 0.00371173 -33.8099 24.9467 40.7893 -1.59028e-015 3.97569e-016 -0 166.842 -71.1601 -166.169 -97.6541 53.0568 -36.6178 5.33998 16.4831 3.60312 17.7148 9.98202 7.53617 78.3798 -19.0368 79.4012 53.5895 52.9208 64.0607 -4.99194 18.9501 -0.544614 20.0982 -18.4072 15.3514 4.82534 17.6094 -12.9491 -10.0441 -3.99757 -0.710302 -1.18447e-009 1.5602e-007 -4.87132e-009 
-18.1637 97.5938 -450.586 -5.49319 4.06323 -109.23 -19.2506 10.6879 -1.03661 9.51753 18.6286 3.51675 3.59505 -2.25012 0.0629497 0.0462048 0.000533403 0.662642 5.52506 9.69351 4.93442 -0.0165298 0.0131896 0.00371173 -31.7403 24.6821 38.783 -0 -7.95139e-016 -0 166.651 -71.93 -165.402 -98.6672 52.5423 -34.9502 5.6024 18.3944 1.23138 18.64 9.87851 7.35019 76.7146 -19.6071 78.4924 53.7667 53.1956 64.3725 -5.0529 19.294 -0.55463 20.509 -18.9968 15.2785 4.91498 20.2486 -13.42 -11.7958 -3.75114 -0.817913 -1.18446e-009 1.5602e-007 -4.87132e-009 
-18.2995 96.9017 -450.938 -5.5196 3.92483 -108.98 -19.3289 10.8511 -0.872727 5.94388 21.6451 4.72199 6.92994 -1.84516 0.205612 0.0462048 0.000533403 0.662642 5.4947 9.68692 4.99225 -0.0165298 0.0131896 0.00371173 -28.0976 24.631 35.6857 -0 -5.96354e-016 -0 165.994 -72.9196 -164.904 -99.3976 52.5602 -34.0859 5.8213 18.3656 1.26564 19.7696 9.48763 7.07192 74.5211 -20.1918 77.0119 53.7148 53.5574 65.107 -5.21817 19.4428 -0.392293 20.8766 -19.8903 15.1636 5.08083 22.4855 -13.8272 -13.6374 -3.62151 -0.910301 -1.18446e-009 1.5602e-007 -4.87132e-009 
-18.3742 96.2469 -451.324 -5.60343 3.7378 -108.729 -19.3803 10.752 -0.588744 3.30607 23.5436 5.50685 9.42347 -1.5956 0.231141 0.0462048 0.000533403 0.662642 5.46887 9.64573 5.00126 -0.0165298 0.0131896 0.00371173 -24.7646 24.5413 32.8389 0 5.96354e-016 -0 164.69 -74.1282 -164.987 -99.9739 52.8602 -33.7769 5.9242 19.3336 0.141339 21.0498 8.87924 6.72709 71.9333 -20.6452 75.1392 53.3861 53.9494 66.2116 -5.466 19.7598 -0.117854 21.1601 -20.8381 14.9866 5.28724 24.31 -14.1273 -15.5314 -3.44058 -0.999415 -1.18447e-009 1.5602e-007 -4.87132e-009 
-18.3719 95.5714 -451.73 -5.76152 3.51834 -108.483 -19.405 10.5024 -0.189289 1.42188 24.9141 5.91075 11.1992 -1.44932 0.264413 0.0462048 0.000533403 0.662642 5.48278 9.55408 4.94746 -0.0165298 0.0131896 0.00371173 -21.7484 24.4937 30.2486 7.95139e-016 0 -1.59028e-015 162.505 -75.5431 -165.964 -100.445 53.2722 -33.8273 5.92254 19.2386 0.392646 22.4266 8.12914 6.34484 69.0807 -20.8585 73.0411 52.7563 54.3336 67.6204 -5.71101 19.9281 0.195038 21.3498 -21.7493 14.7331 5.53608 25.9374 -14.3205 -17.4345 -3.21829 -1.0802 -1.18446e-009 1.5602e-007 -4.87131e-009 
-18.2701 94.9015 -452.145 -6.00342 3.27989 -108.261 -19.418 10.1771 0.327995 0.127949 26.0762 5.96852 12.3722 -1.36906 0.294914 0.0462048 0.000533403 0.662642 5.56272 9.40499 4.8305 -0.0165298 0.0131896 0.00371173 -19.0426 24.5417 27.9047 1.59028e-015 0 -0 159.01 -77.1308 -168.306 -100.906 53.7146 -34.0925 5.82522 19.746 -0.134624 23.8469 7.31228 5.95843 66.0955 -20.7783 70.8766 51.8366 54.683 69.2555 -5.96475 20.1627 0.533664 21.4584 -22.5698 14.403 5.80272 27.4749 -14.3987 -19.3142 -2.97489 -1.15011 -1.18446e-009 1.5602e-007 -4.87131e-009 
-18.0655 94.2385 -452.569 -6.3391 3.02744 -108.079 -19.3963 9.7928 0.951883 -0.547511 27.4512 5.73592 13.1448 -1.2621 0.313002 0.0462048 0.000533403 0.662642 5.71039 9.19921 4.65211 -0.0165298 0.0131896 0.00371173 -16.6296 24.7153 25.7985 2.20695e-032 3.97569e-016 -3.18055e-015 153.561 -78.8187 -172.667 -101.421 54.1616 -34.428 5.68279 19.6567 0.0827825 34.6484 -0.210467 7.2267 51.7621 -18.2215 60.9976 51.0994 54.6334 70.8289 -6.11794 20.291 0.787949 21.4996 -23.2809 13.9994 6.07673 28.9867 -14.364 -21.1621 -2.73733 -1.21186 -1.18446e-009 1.5602e-007 -4.87131e-009 
-17.7726 93.5861 -452.985 -6.77655 2.76805 -107.951 -19.3609 9.35461 1.68472 -0.816406 29.0335 5.25471 13.6713 -1.16584 0.316991 0.0462048 0.000533403 0.662642 5.94457 8.95122 4.41949 -0.0165298 0.0131896 0.00371173 -14.5149 25.0178 23.9121 1.59028e-015 -5.96354e-016 -0 145.119 -80.4783 179.897 -102.045 54.5658 -34.7702 5.52723 19.9178 -0.237155 34.7438 -0.130448 6.69766 50.3867 -17.7668 60.4866 50.1036 54.6035 72.577 -6.2629 20.423 1.0065 21.4767 -23.8635 13.5259 6.33828 30.4795 -14.2109 -22.9595 -2.50925 -1.26577 -1.18446e-009 1.5602e-007 -4.87132e-009 
-17.4147 92.9404 -453.383 -7.31869 2.51219 -107.887 -19.3545 8.87146 2.53151 -0.864962 30.8089 4.58905 14.1239 -1.05367 0.315776 0.0462048 0.000533403 0.662642 6.27099 8.67951 4.1454 -0.0165298 0.0131896 0.00371173 -12.6841 25.4329 22.2335 0 0 -1.59028e-015 133.321 -81.9939 168.518 -102.519 55.3347 -34.3119 5.37626 19.4635 -0.151826 34.9922 -0.00104843 6.28474 49.0001 -17.134 59.9718 48.8746 54.6415 74.3112 -6.37354 20.4522 1.1595 21.4021 -24.3121 12.9907 6.56943 31.9605 -13.9383 -24.6901 -2.29539 -1.3127 -1.18446e-009 1.5602e-007 -4.87131e-009 
-17.012 92.2958 -453.754 -7.96215 2.27158 -107.894 -19.4074 8.35235 3.48912 -0.797819 32.768 3.7936 14.6067 -0.920598 0.311163 0.0462048 0.000533403 0.662642 6.69054 8.40245 3.84353 -0.0165298 0.0131896 0.00371173 -11.1323 25.9366 20.757 -7.95139e-016 1.98785e-016 -1.59028e-015 116.251 -83.0322 151.826 -103.158 56.0727 -33.7717 5.27889 19.202 -0.42253 35.2407 0.220491 5.96305 47.7909 -16.3909 59.5758 47.5496 54.6917 75.8994 -6.57781 20.4331 1.34738 21.2943 -24.632 12.4053 6.756 33.4343 -13.5507 -26.3422 -2.09856 -1.35366 -1.18446e-009 1.5602e-007 -4.87131e-009 
-16.5789 91.6459 -454.095 -8.69675 2.05729 -107.968 -19.5272 7.8021 4.54285 -0.656872 34.8989 2.90896 15.1663 -0.765965 0.304571 0.0462048 0.000533403 0.662642 7.19783 8.1375 3.52677 -0.0165298 0.0131896 0.00371173 -9.85198 26.4991 19.4802 -7.95139e-016 0 -0 95.4998 -83.2996 131.44 -103.93 56.7873 -33.1433 5.26591 18.7234 -0.491612 35.4392 0.572564 5.72935 46.8205 -15.6286 59.3493 46.2495 54.7202 77.2657 -6.74671 20.3266 1.47454 21.171 -24.839 11.7807 6.89004 34.9011 -13.0584 -27.9083 -1.91961 -1.38934 -1.18447e-009 1.5602e-007 -4.87131e-009 
-16.125 90.9854 -454.401 -9.50651 1.87736 -108.099 -19.706 7.22152 5.66827 -0.448741 37.1834 1.96521 15.8141 -0.591458 0.295962 0.0462048 0.000533403 0.662642 7.77975 7.90024 3.20588 -0.0165298 0.0131896 0.00371173 -8.83134 27.0892 18.4018 3.18055e-015 7.95139e-016 -1.59028e-015 75.9601 -82.7573 112.282 -104.784 57.4883 -32.4432 5.31503 18.3459 -0.791316 35.5592 1.07606 5.58439 46.1153 -14.9238 59.2953 45.0581 54.718 78.3716 -6.91823 20.1811 1.575 21.0458 -24.959 11.126 6.97008 36.3593 -12.4787 -29.3856 -1.75787 -1.4203 -1.18446e-009 1.5602e-007 -4.87132e-009 
